<svg width="13" height="7" viewBox="0 0 13 7" fill="none" xmlns="http://www.w3.org/2000/svg">
<path fill-rule="evenodd" clip-rule="evenodd" d="M6.14663 0.146894C6.19308 0.10033 6.24825 0.0633873 6.309 0.0381808C6.36974 0.0129744 6.43486 0 6.50063 0C6.5664 0 6.63152 0.0129744 6.69226 0.0381808C6.75301 0.0633873 6.80819 0.10033 6.85463 0.146894L12.8546 6.14689C12.9485 6.24078 13.0013 6.36812 13.0013 6.50089C13.0013 6.63367 12.9485 6.76101 12.8546 6.85489C12.7607 6.94878 12.6334 7.00152 12.5006 7.00152C12.3679 7.00152 12.2405 6.94878 12.1466 6.85489L6.50063 1.20789L0.854632 6.85489C0.760745 6.94878 0.633407 7.00152 0.500632 7.00152C0.367856 7.00152 0.240518 6.94878 0.146632 6.85489C0.052745 6.76101 0 6.63367 0 6.50089C0 6.36812 0.052745 6.24078 0.146632 6.14689L6.14663 0.146894Z" fill="#101828"/>
</svg>
